<?xml version="1.0" encoding="UTF-8" standalone="no"?>
<!-- Created with Inkscape (http://www.inkscape.org/) -->

<svg
   enable-background="new"
   sodipodi:docname="F6MA44UHXRZHQGE.svg"
   xml:space="preserve"
   height="121.75931"
   width="120.01401"
   inkscape:version="0.48.5 r10040"
   version="1.1"
   id="svg2"
   inkscape:export-filename="/home/seb/Documents/Jeux/hive/Hive.png"
   inkscape:export-xdpi="90"
   inkscape:export-ydpi="90"
   xmlns:inkscape="http://www.inkscape.org/namespaces/inkscape"
   xmlns:sodipodi="http://sodipodi.sourceforge.net/DTD/sodipodi-0.dtd"
   xmlns="http://www.w3.org/2000/svg"
   xmlns:svg="http://www.w3.org/2000/svg"
   xmlns:rdf="http://www.w3.org/1999/02/22-rdf-syntax-ns#"
   xmlns:cc="http://creativecommons.org/ns#"
   xmlns:dc="http://purl.org/dc/elements/1.1/"><sodipodi:namedview
     pagecolor="#ffffff"
     bordercolor="#666666"
     borderopacity="1"
     objecttolerance="10"
     gridtolerance="10"
     guidetolerance="10"
     inkscape:pageopacity="0"
     inkscape:pageshadow="2"
     inkscape:window-width="1920"
     inkscape:window-height="1080"
     id="namedview4"
     showgrid="true"
     inkscape:zoom="0.35355339"
     inkscape:cx="1777.6694"
     inkscape:cy="805.44157"
     inkscape:window-x="0"
     inkscape:window-y="0"
     inkscape:window-maximized="1"
     inkscape:current-layer="layer11"
     units="mm"
     showguides="true"
     inkscape:guide-bbox="true"
     inkscape:document-units="mm"
     inkscape:snap-grids="true"
     inkscape:snap-to-guides="true"
     inkscape:showpageshadow="2"
     inkscape:pagecheckerboard="0"
     inkscape:deskcolor="#d1d1d1"><inkscape:grid
       type="xygrid"
       id="grid3210"
       units="mm"
       empspacing="5"
       visible="true"
       enabled="true"
       snapvisiblegridlinesonly="true"
       originx="-317.47086"
       originy="-335.06995"
       spacingy="1"
       spacingx="1" /></sodipodi:namedview><metadata
     id="metadata8"><rdf:RDF><cc:Work
         rdf:about=""><dc:format>image/svg+xml</dc:format><dc:type
           rdf:resource="http://purl.org/dc/dcmitype/StillImage" /><dc:title /></cc:Work></rdf:RDF></metadata><defs
     id="defs6" /><g
     inkscape:groupmode="layer"
     id="layer11"
     inkscape:label="planche"
     style="display:inline"
     transform="translate(-317.47086,-335.06995)"><g
       style="display:inline"
       inkscape:label="noirs 15"
       id="g8402"
       inkscape:groupmode="layer"><path
         style="display:inline;fill:#03f4fc"
         inkscape:connector-curvature="0"
         d="m 437.15613,381.01889 c -5.52608,-1.56589 -12.15674,-0.59831 -17.03849,-0.23012 -4.88174,0.36819 -1.33576,-0.13808 -3.63696,-0.78241 -2.30226,-0.64541 -7.87437,2.07322 -9.02604,2.62443 -1.1506,0.55336 -0.78241,0.87446 -2.57841,0.046 -1.796,-0.82843 -6.30956,-0.1841 -10.86807,0.50733 -4.55851,0.69143 -4.23527,-0.13914 -3.86708,-0.18516 0.36819,-0.046 0.55229,-1.19663 0.092,-2.85456 -0.46131,-1.65793 -0.55336,-2.21022 -0.55336,-3.45393 0,-1.24372 0.046,-1.65794 0.41529,-1.51986 0.36819,0.13807 4.28236,-1.98117 4.28236,-1.98117 6.17042,-4.74368 5.1108,-4.83573 5.34092,-5.52502 0.23012,-0.69142 0.41529,-0.4613 3.40791,-0.7824 2.9937,-0.32324 4.46753,-2.25624 6.44656,-3.50103 1.98117,-1.24265 2.90165,-0.91941 3.77611,-0.87339 0.87445,0.046 3.45393,0.32217 4.74367,0.046 1.28867,-0.27722 2.07215,-1.42781 4.69765,-2.30334 2.62444,-0.87338 0.137,-0.78134 -3.22381,-0.78134 -3.36189,0 -5.98739,1.3347 -9.76243,1.47384 -3.7761,0.13807 -4.23741,1.1035 -5.43403,1.74998 -1.19662,0.64434 -4.09827,2.67046 -5.20285,2.71648 -1.10564,0.046 -2.07321,-0.046 -2.6255,0.59938 -0.55229,0.64434 -7.13692,5.38694 -7.55221,5.98633 -0.41421,0.59938 -2.20914,-6.99992 -3.54598,-9.43919 -1.33576,-2.44141 -4.46753,-3.36189 -4.88175,-3.31586 -0.41528,0.046 -0.13807,-0.55443 -0.13807,-0.55443 0,0 2.02612,1.15167 4.74261,-0.69036 2.71755,-1.84203 2.71755,-4.32946 2.71755,-5.43404 0,-1.10457 -0.1841,-1.84202 -0.1841,-1.84202 0.46024,-0.1841 1.10458,-0.55336 1.10458,-1.47277 0,-0.92155 -0.55336,-2.02719 -0.92048,-2.39538 -0.36926,-0.3682 -0.36926,-1.38179 -0.36926,-1.93408 0,-0.55229 1.28974,0.64434 2.85562,1.84203 1.56589,1.19769 3.03865,3.59094 4.23634,2.85562 1.19663,-0.73638 8.1045,-11.97371 8.65785,-12.61804 0.55229,-0.64541 2.57841,-1.19769 1.65794,-1.74998 -0.92155,-0.55229 -1.65794,0.36819 -1.65794,0.36819 -2.76357,2.30227 -6.72377,9.76242 -7.64532,10.96011 -0.92155,1.1977 -1.38179,1.56589 -1.84203,1.38179 -0.46131,-0.18409 -5.89427,-4.88175 -8.10449,-6.99991 -2.06894,-1.98224 -7.47086,-2.66404 -8.15801,-2.74324 v -0.009 c 0,0 -0.015,0.001 -0.0364,0.004 -0.0225,-0.002 -0.0364,-0.004 -0.0364,-0.004 v 0.009 c -0.68822,0.0792 -6.09014,0.761 -8.15801,2.74324 -2.21022,2.11816 -7.64532,6.81582 -8.10449,6.99991 -0.46131,0.1841 -0.92048,-0.18409 -1.8431,-1.38179 -0.92048,-1.19769 -4.88175,-8.65677 -7.64425,-10.96011 0,0 -0.73639,-0.92048 -1.65793,-0.36819 -0.92048,0.55229 1.10564,1.10457 1.65793,1.74998 0.55335,0.6454 7.46122,11.88166 8.65785,12.61804 1.19662,0.73639 2.67046,-1.65793 4.23634,-2.85562 1.56588,-1.19769 2.85455,-2.39432 2.85455,-1.84203 0,0.55229 0,1.56588 -0.36819,1.93408 -0.36819,0.36926 -0.92048,1.47383 -0.92048,2.39538 0,0.91941 0.64541,1.28867 1.10565,1.47277 0,0 -0.18517,0.73638 -0.18517,1.84202 0,1.10565 0,3.59201 2.71648,5.43404 2.71756,1.84203 4.74368,0.69036 4.74368,0.69036 0,0 0.27721,0.60045 -0.13807,0.55443 -0.41422,-0.046 -3.54599,0.87338 -4.88175,3.31586 -1.33576,2.43927 -3.13177,10.03857 -3.54598,9.43919 -0.41529,-0.59939 -6.99992,-5.34199 -7.55328,-5.98633 -0.55229,-0.6454 -1.51879,-0.55335 -2.62443,-0.59938 -1.10458,-0.046 -4.00623,-2.07321 -5.20285,-2.71648 -1.19769,-0.64648 -1.659,-1.61191 -5.43403,-1.74998 -3.77503,-0.13914 -6.40054,-1.47384 -9.76243,-1.47384 -3.36188,0 -5.84825,-0.092 -3.22381,0.78134 2.6255,0.87553 3.40898,2.02719 4.69765,2.30334 1.28974,0.27614 3.86708,0 4.74368,-0.046 0.87445,-0.046 1.796,-0.36926 3.77503,0.87339 1.98117,1.24372 3.45393,3.17779 6.44763,3.50103 2.99262,0.32217 3.17672,0.0921 3.40791,0.7824 0.23012,0.69036 -0.8295,0.78134 5.34092,5.52502 0,0 3.91417,2.11817 4.28236,1.98117 0.36819,-0.13701 0.41422,0.27721 0.41422,1.51986 0,1.24264 -0.091,1.796 -0.55229,3.45393 -0.46024,1.65793 -0.27614,2.80853 0.092,2.85456 0.36819,0.046 0.69143,0.87552 -3.86815,0.18516 -4.55851,-0.69143 -9.07207,-1.33576 -10.867,-0.50733 -1.79493,0.82843 -1.42781,0.50733 -2.57841,-0.046 -1.15167,-0.55228 -6.72271,-3.26984 -9.02604,-2.62443 -2.30334,0.64541 1.24371,1.1506 -3.63696,0.78241 -4.88068,-0.36819 -11.51348,-1.33577 -17.03849,0.23012 0,0 -1.10564,0.73638 0.73638,0.46024 1.84203,-0.27615 8.28859,-0.32217 10.867,-0.0921 2.57841,0.23012 7.87438,0.41528 8.01245,0.96757 0.13807,0.55229 5.80115,2.25517 10.36073,2.34722 0,0 0.8295,-0.32217 1.88805,0.50733 1.05962,0.82843 1.05962,0.78241 6.35559,0.82843 5.29596,0.046 7.59823,-0.36819 8.70387,-0.50626 1.10458,-0.13807 2.34829,-0.18409 2.34829,0.046 0,0.23012 1.10565,7.32101 3.22382,9.02497 0,0 0.36819,0.13914 -0.18517,0.78347 -0.55229,0.64434 -1.38072,1.84203 -1.1506,3.08575 0,0 0.73639,-0.23012 -1.84202,1.796 -2.57841,2.02612 -9.53124,7.55114 -12.20277,13.76758 0,0 -0.27614,0.32324 -0.92048,0.64647 -0.6454,0.32217 -1.24264,0.96544 -1.15059,2.9466 0.092,1.98117 -0.13808,1.19663 -0.96651,2.07322 -0.82843,0.87339 -6.81582,11.60445 -6.63065,12.34084 0.18409,0.73638 0.73638,0.32323 -0.23119,2.07214 -0.96651,1.75105 -9.85448,14.32202 -11.28229,16.62429 -1.42674,2.30119 -3.95913,5.7562 -3.36188,6.07836 0.59938,0.32217 4.51355,-5.80222 5.38801,-6.99991 0.87445,-1.19663 10.40783,-15.56466 10.95904,-16.02597 0.55336,-0.46024 1.38179,0 1.74998,-0.41422 0.36926,-0.41421 5.98739,-12.89419 6.03342,-13.72155 0.046,-0.8295 0.32217,-1.15167 0.55336,-1.28974 0.22904,-0.13807 1.98009,-0.41529 2.02612,-1.65793 0.046,-1.24372 0.9665,-2.07215 2.44034,-3.82106 1.47276,-1.75105 5.80222,-6.44656 7.73737,-9.48628 1.93407,-3.03972 2.16312,-1.74998 2.85455,-2.25731 0.69143,-0.50627 0.69143,-1.93408 1.38179,-1.88806 0.69036,0.0471 1.42674,-0.046 0.78134,1.56589 -0.64434,1.61191 -0.0921,1.98117 0.55335,2.85562 0.64541,0.87553 0.69143,1.51986 -0.046,1.70396 -0.73638,0.18409 -3.17779,2.30227 -1.33576,4.51355 0,0 0.50733,0.27615 -0.73639,0.91941 -1.24371,0.64648 -7.27606,4.14537 -9.16518,8.6129 -1.88805,4.46646 -1.93408,9.85233 -1.84203,12.70795 0.0921,2.85563 0.92048,9.39424 4.60561,13.17142 3.67549,3.76647 6.45512,6.73662 13.14464,6.7516 v 0 c 0.0107,0 0.015,0 0.0225,0 0.0107,0 0.015,0 0.0225,0 v 0 c 6.68952,-0.015 9.47022,-2.98513 13.14464,-6.7516 3.68299,-3.77611 4.51356,-10.31579 4.60561,-13.17142 0.092,-2.85562 0.046,-8.24149 -1.8431,-12.70795 -1.88805,-4.46753 -7.91933,-7.96642 -9.16411,-8.6129 -1.24265,-0.64433 -0.73639,-0.91941 -0.73639,-0.91941 1.84203,-2.21021 -0.59938,-4.32946 -1.33469,-4.51355 -0.73638,-0.1841 -0.69143,-0.82736 -0.0471,-1.70396 0.6454,-0.87445 1.19769,-1.24371 0.55335,-2.85562 -0.64433,-1.61191 0.0921,-1.51879 0.78241,-1.56589 0.69143,-0.046 0.69143,1.38179 1.38179,1.88806 0.69143,0.5084 0.92048,-0.78134 2.85562,2.25731 1.93408,3.03972 6.26247,7.7363 7.7363,9.48628 1.47384,1.74998 2.39325,2.57734 2.44034,3.82106 0.046,1.24264 1.79601,1.51986 2.02613,1.65793 0.23119,0.13807 0.50733,0.46024 0.55335,1.28974 0.046,0.82736 5.66416,13.30841 6.03235,13.72155 0.36926,0.41422 1.19769,-0.046 1.75105,0.41422 0.55229,0.46131 10.08459,14.82827 10.95905,16.02597 0.87445,1.19769 4.78969,7.32208 5.38694,6.99991 0.59938,-0.32216 -1.93408,-3.7761 -3.36082,-6.07836 -1.42781,-2.30227 -10.31578,-14.87324 -11.28336,-16.62429 -0.9665,-1.74891 -0.41421,-1.33469 -0.23012,-2.07214 0.18517,-0.73639 -5.80222,-11.46745 -6.63065,-12.34084 -0.82843,-0.87552 -1.05855,-0.0921 -0.9665,-2.07322 0.092,-1.98116 -0.50734,-2.62443 -1.1506,-2.9466 -0.64541,-0.32323 -0.92155,-0.64647 -0.92155,-0.64647 -2.67046,-6.21751 -9.62328,-11.74253 -12.20276,-13.76758 -2.57841,-2.02612 -1.84096,-1.796 -1.84096,-1.796 0.23012,-1.24372 -0.59938,-2.44141 -1.15167,-3.08575 -0.55336,-0.6454 -0.1841,-0.78347 -0.1841,-0.78347 2.11818,-1.70396 3.22382,-8.79485 3.22382,-9.02497 0,-0.23012 1.24265,-0.1841 2.34829,-0.046 1.10457,0.13807 3.40791,0.55229 8.7028,0.50626 5.29597,-0.046 5.29597,0 6.35559,-0.82843 1.05962,-0.82843 1.88805,-0.50733 1.88805,-0.50733 4.55958,-0.0921 10.22373,-1.796 10.3618,-2.34722 0.13808,-0.55336 5.43404,-0.73745 8.01245,-0.96757 2.57841,-0.23012 9.02604,-0.1841 10.867,0.0921 1.83988,0.27614 0.73531,-0.46024 0.73531,-0.46024 z"
         id="path27-8-6" /></g></g></svg>
