<?xml version="1.0" encoding="UTF-8" standalone="no"?>
<!-- Created with Inkscape (http://www.inkscape.org/) -->

<svg
   enable-background="new"
   sodipodi:docname="F6MA44UHXRZHQGE.svg"
   xml:space="preserve"
   height="138.69095"
   width="81.559265"
   inkscape:version="0.48.5 r10040"
   version="1.1"
   id="svg2"
   inkscape:export-filename="/home/seb/Documents/Jeux/hive/Hive.png"
   inkscape:export-xdpi="90"
   inkscape:export-ydpi="90"
   xmlns:inkscape="http://www.inkscape.org/namespaces/inkscape"
   xmlns:sodipodi="http://sodipodi.sourceforge.net/DTD/sodipodi-0.dtd"
   xmlns="http://www.w3.org/2000/svg"
   xmlns:svg="http://www.w3.org/2000/svg"
   xmlns:rdf="http://www.w3.org/1999/02/22-rdf-syntax-ns#"
   xmlns:cc="http://creativecommons.org/ns#"
   xmlns:dc="http://purl.org/dc/elements/1.1/"><sodipodi:namedview
     pagecolor="#ffffff"
     bordercolor="#666666"
     borderopacity="1"
     objecttolerance="10"
     gridtolerance="10"
     guidetolerance="10"
     inkscape:pageopacity="0"
     inkscape:pageshadow="2"
     inkscape:window-width="1920"
     inkscape:window-height="1080"
     id="namedview4"
     showgrid="true"
     inkscape:zoom="0.35355339"
     inkscape:cx="1777.6694"
     inkscape:cy="805.44157"
     inkscape:window-x="0"
     inkscape:window-y="0"
     inkscape:window-maximized="1"
     inkscape:current-layer="layer11"
     units="mm"
     showguides="true"
     inkscape:guide-bbox="true"
     inkscape:document-units="mm"
     inkscape:snap-grids="true"
     inkscape:snap-to-guides="true"
     inkscape:showpageshadow="2"
     inkscape:pagecheckerboard="0"
     inkscape:deskcolor="#d1d1d1"><inkscape:grid
       type="xygrid"
       id="grid3210"
       units="mm"
       empspacing="5"
       visible="true"
       enabled="true"
       snapvisiblegridlinesonly="true"
       originx="-824.91193"
       originy="-328.7084"
       spacingy="1"
       spacingx="1" /></sodipodi:namedview><metadata
     id="metadata8"><rdf:RDF><cc:Work
         rdf:about=""><dc:format>image/svg+xml</dc:format><dc:type
           rdf:resource="http://purl.org/dc/dcmitype/StillImage" /><dc:title /></cc:Work></rdf:RDF></metadata><defs
     id="defs6" /><g
     inkscape:groupmode="layer"
     id="layer11"
     inkscape:label="planche"
     style="display:inline"
     transform="translate(-824.91193,-328.7084)"><g
       style="display:inline"
       inkscape:label="noirs 15"
       id="g8402"
       inkscape:groupmode="layer"><path
         style="display:inline;fill:#8a3eab"
         d="m 839.71638,458.92379 c 3.34615,-8.72001 3.49525,-10.09456 2.2887,-21.0959 -0.81892,-7.46681 1.04403,-13.78716 5.22022,-17.71049 3.04197,-2.85778 3.71552,-10.24911 0.93395,-10.24911 -4.2591,0 -5.58283,1.94294 -5.58283,8.19425 0,3.33699 -0.4561,6.34915 -1.0136,6.6937 -0.5575,0.34455 -1.98942,3.8391 -3.18209,7.76568 -2.04002,6.71634 -3.17465,8.31573 -4.4432,6.26319 -0.2978,-0.48186 0.59259,-4.52701 1.97861,-8.98924 1.59118,-5.12261 2.52576,-10.6229 2.53552,-14.92192 0.0173,-7.59382 0.48113,-8.27876 6.89776,-10.18324 3.0862,-0.916 4.40195,-1.89646 4.62302,-3.44497 0.19396,-1.35854 1.19177,-2.28966 2.67975,-2.50057 3.62125,-0.51331 2.11949,-2.58993 -2.95798,-4.09038 -2.50221,-0.7394 -5.2429,-1.69053 -6.09043,-2.11359 -2.04765,-1.02209 -5.77508,-8.65286 -7.34377,-15.03414 -0.92665,-3.76938 -2.57845,-6.51261 -6.20555,-10.3057 -7.82118,-8.1791 -6.37457,-10.18222 1.99173,-2.75798 5.86483,5.20446 6.94929,6.68666 7.02999,9.60871 0.0525,1.90022 1.16117,5.68841 2.4638,8.41818 2.40471,5.03931 5.00592,6.85121 9.83572,6.85121 2.08173,0 2.50147,-0.50553 2.50147,-3.0128 0,-2.09276 -0.61659,-3.20846 -2.01902,-3.65358 -2.26992,-0.72045 -3.16962,-4.36276 -3.04804,-12.33942 0.0431,-2.82519 -0.23402,-8.6676 -0.61579,-12.98314 -0.9797,-11.07483 1.23412,-18.39249 7.33873,-24.25794 2.49931,-2.40142 5.30121,-4.3662 6.22644,-4.3662 1.50829,0 1.49313,0.20888 -0.14673,2.0209 -1.71524,1.89533 -1.73603,3.37193 -0.10301,7.31054 0.5519,1.33112 0.0885,1.54042 -2.55242,1.15281 -2.72334,-0.3997 -3.16903,-0.17382 -2.85674,1.44781 0.20352,1.05677 1.74686,2.5813 3.42973,3.38786 1.6828,0.80656 2.60174,1.57868 2.04209,1.71581 -0.55965,0.13714 -2.24271,0.51813 -3.7401,0.84666 -5.18581,1.13781 -5.75059,8.35595 -1.24991,15.97499 1.94033,3.28467 2.92,3.80245 3.97244,2.09953 0.34921,-0.56504 2.66072,-1.02735 5.13672,-1.02735 2.47595,0 4.78745,0.46231 5.13668,1.02735 1.05248,1.70292 2.03211,1.18514 3.97242,-2.09953 4.50068,-7.61904 3.93591,-14.83718 -1.24991,-15.97499 -1.49738,-0.32853 -3.18043,-0.70952 -3.74009,-0.84666 -0.55965,-0.13713 0.35928,-0.90925 2.04209,-1.71581 1.68288,-0.80656 3.22622,-2.33109 3.42973,-3.38786 0.3123,-1.62163 -0.13339,-1.84751 -2.85674,-1.44781 -2.6409,0.38761 -3.10432,0.17831 -2.55242,-1.15281 1.63305,-3.93861 1.61226,-5.41521 -0.10301,-7.31054 -1.63984,-1.81202 -1.65501,-2.0209 -0.14671,-2.0209 0.92523,0 3.72713,1.96478 6.22643,4.3662 6.10462,5.86545 8.31843,13.18311 7.33873,24.25794 -0.38176,4.31554 -0.65888,10.15795 -0.61579,12.98314 0.12159,7.97666 -0.77813,11.61897 -3.04803,12.33942 -1.40245,0.44512 -2.01903,1.56082 -2.01903,3.65358 0,2.50727 0.41975,3.0128 2.50147,3.0128 4.82981,0 7.43101,-1.8119 9.83572,-6.85121 1.30258,-2.72977 2.41134,-6.51796 2.46381,-8.41818 0.0808,-2.92205 1.16515,-4.40425 7.02998,-9.60871 8.36629,-7.42424 9.81291,-5.42112 1.99174,2.75798 -3.6271,3.79309 -5.27891,6.53632 -6.20556,10.3057 -1.56869,6.38128 -5.29608,14.01205 -7.34376,15.03414 -0.84754,0.42306 -3.58823,1.37419 -6.09045,2.11359 -5.07747,1.50045 -6.57921,3.57707 -2.95796,4.09038 1.48798,0.21091 2.48578,1.14203 2.67975,2.50057 0.22105,1.54851 1.53682,2.52897 4.62302,3.44497 6.41663,1.90448 6.88059,2.58942 6.89776,10.18324 0.0106,4.29902 0.94432,9.79931 2.53551,14.92192 1.38601,4.46223 2.27641,8.50738 1.97861,8.98924 -1.26855,2.05254 -2.40318,0.45315 -4.4432,-6.26319 -1.19267,-3.92658 -2.62459,-7.42113 -3.18209,-7.76568 -0.55745,-0.34455 -1.0136,-3.35671 -1.0136,-6.6937 0,-6.25131 -1.32374,-8.19425 -5.58283,-8.19425 -2.78156,0 -2.10802,7.39133 0.93395,10.24911 4.17619,3.92333 6.03914,10.24368 5.22022,17.71049 -1.20656,11.00134 -1.05744,12.37589 2.2887,21.0959 2.60739,6.79481 2.94548,8.47557 1.70491,8.47557 -0.85107,0 -1.83142,-0.80904 -2.17854,-1.79784 -0.34713,-0.98882 -2.21217,-5.26513 -4.14451,-9.50291 -3.51156,-7.70111 -3.51274,-7.709 -2.30886,-15.41011 0.87371,-5.58939 0.89919,-8.48079 0.0927,-10.53024 -1.58633,-4.03164 -3.87859,-3.5569 -4.72962,0.97956 -1.09934,5.85996 -4.92212,10.78402 -8.0319,13.69651 -3.5876,3.35997 -3.79848,6.19734 -4.98057,-3.60487 l -1.48998,-12.35537 -1.29595,12.35537 c -1.02277,9.75079 -1.39297,6.96484 -4.99237,3.60487 -3.1145,-2.90738 -6.93251,-7.83655 -8.03185,-13.69651 -0.85104,-4.53646 -3.14329,-5.0112 -4.72963,-0.97956 -0.80642,2.04945 -0.78095,4.94085 0.0928,10.53024 1.20383,7.70111 1.20265,7.709 -2.30891,15.41011 -1.93234,4.23778 -3.79737,8.51409 -4.14451,9.50291 -0.34708,0.9888 -1.32746,1.79784 -2.17856,1.79784 -1.24054,0 -0.90241,-1.68076 1.70493,-8.47557 z m 33.68021,-69.0403 v -4.1577 h -7.70501 -7.70505 v 4.06605 c 0,3.30353 0.71383,4.7971 3.8066,7.96439 l 3.80666,3.89836 3.89839,-3.80669 c 3.24373,-3.16743 3.89841,-4.50493 3.89841,-7.96441 z"
         id="path8412"
         inkscape:connector-curvature="0"
         sodipodi:nodetypes="csssscssssscsssssssssssssssssssscssssssscssssssssssssccsssssscscssscssssssssscssscsssssscsccscccsscss" /></g></g></svg>
