<?xml version="1.0" encoding="UTF-8" standalone="no"?>
<!-- Created with Inkscape (http://www.inkscape.org/) -->

<svg
   enable-background="new"
   sodipodi:docname="F6MA44UHXRZHQGE.svg"
   xml:space="preserve"
   height="83.780029"
   width="134.37444"
   inkscape:version="0.48.5 r10040"
   version="1.1"
   id="svg2"
   inkscape:export-filename="/home/seb/Documents/Jeux/hive/Hive.png"
   inkscape:export-xdpi="90"
   inkscape:export-ydpi="90"
   xmlns:inkscape="http://www.inkscape.org/namespaces/inkscape"
   xmlns:sodipodi="http://sodipodi.sourceforge.net/DTD/sodipodi-0.dtd"
   xmlns="http://www.w3.org/2000/svg"
   xmlns:svg="http://www.w3.org/2000/svg"
   xmlns:rdf="http://www.w3.org/1999/02/22-rdf-syntax-ns#"
   xmlns:cc="http://creativecommons.org/ns#"
   xmlns:dc="http://purl.org/dc/elements/1.1/"><sodipodi:namedview
     pagecolor="#ffffff"
     bordercolor="#666666"
     borderopacity="1"
     objecttolerance="10"
     gridtolerance="10"
     guidetolerance="10"
     inkscape:pageopacity="0"
     inkscape:pageshadow="2"
     inkscape:window-width="1920"
     inkscape:window-height="1080"
     id="namedview4"
     showgrid="true"
     inkscape:zoom="0.35355339"
     inkscape:cx="1777.6694"
     inkscape:cy="805.44157"
     inkscape:window-x="0"
     inkscape:window-y="0"
     inkscape:window-maximized="1"
     inkscape:current-layer="layer11"
     units="mm"
     showguides="true"
     inkscape:guide-bbox="true"
     inkscape:document-units="mm"
     inkscape:snap-grids="true"
     inkscape:snap-to-guides="true"
     inkscape:showpageshadow="2"
     inkscape:pagecheckerboard="0"
     inkscape:deskcolor="#d1d1d1"><inkscape:grid
       type="xygrid"
       id="grid3210"
       units="mm"
       empspacing="5"
       visible="true"
       enabled="true"
       snapvisiblegridlinesonly="true"
       originx="-146.92726"
       originy="-353.89282"
       spacingy="1"
       spacingx="1" /></sodipodi:namedview><metadata
     id="metadata8"><rdf:RDF><cc:Work
         rdf:about=""><dc:format>image/svg+xml</dc:format><dc:type
           rdf:resource="http://purl.org/dc/dcmitype/StillImage" /><dc:title /></cc:Work></rdf:RDF></metadata><defs
     id="defs6" /><g
     inkscape:groupmode="layer"
     id="layer11"
     inkscape:label="planche"
     style="display:inline"
     transform="translate(-146.92726,-353.89282)"><g
       style="display:inline"
       inkscape:label="noirs 15"
       id="g8402"
       inkscape:groupmode="layer"><path
         style="display:inline;fill:#fcba03"
         d="m 209.90874,436.17688 c -5.07458,-2.50027 -8.00444,-7.89948 -10.27871,-18.94192 l -0.55582,-2.6986 -2.6298,3.14808 c -5.82869,6.97734 -12.74602,13.53809 -13.87653,13.16124 -2.30771,-0.76925 -1.9023,-2.59461 0.89784,-4.04265 2.84411,-1.47071 12.56747,-14.7723 16.56644,-22.66291 l 2.12521,-4.19348 -2.23802,0.69253 c -4.84259,1.49843 -9.60542,4.4939 -10.37846,6.52727 -1.19149,3.13391 -10.30345,11.31711 -12.6015,11.31711 -2.93053,0 -2.39896,-1.49203 1.31157,-3.6813 1.80745,-1.06642 5.01369,-4.48063 7.12508,-7.58713 3.25157,-4.78426 4.89013,-6.15596 10.71303,-8.96819 3.78078,-1.82603 6.69664,-3.49766 6.47961,-3.71472 -0.2171,-0.21707 -4.15981,1.22246 -8.76151,3.19895 -7.10623,3.05219 -9.035,3.50207 -12.80102,2.98588 -4.52464,-0.62017 -12.86261,-5.25435 -15.03556,-8.3566 -0.66186,-0.94505 -2.94396,-2.18691 -5.07121,-2.75973 -4.54377,-1.22351 -10.30935,-6.73941 -12.47282,-11.93271 l -1.4993,-3.59904 3.14379,-1.71387 c 4.91864,-2.68148 16.99169,-2.21915 24.41032,0.93475 3.18999,1.35616 9.71496,3.65458 14.49993,5.10757 4.78497,1.453 9.35245,2.86808 10.14993,3.14462 0.79751,0.27654 -1.26874,-1.99244 -4.59165,-5.04217 -4.076,-3.74091 -6.04162,-6.27339 -6.04162,-7.78385 0,-1.26984 -1.4644,-3.70326 -3.38332,-5.62221 -4.40914,-4.4091 -4.3348,-6.0974 0.13485,-3.06418 1.93506,1.31313 4.05843,2.38753 4.71857,2.38753 0.66023,0 1.68981,1.9437 2.288,4.31934 0.82744,3.28613 1.94916,4.90476 4.68916,6.76663 5.26414,3.57712 7.01112,3.28301 6.74877,-1.13622 -0.18117,-3.05091 0.18229,-3.7771 2.44553,-4.88605 1.46209,-0.7164 2.65745,-1.60507 2.65629,-1.9748 0,-0.36973 -3.23028,-3.06474 -7.17589,-5.98889 -3.94563,-2.92416 -6.80501,-5.45071 -6.35425,-5.61454 0.45084,-0.16385 3.89495,1.74703 7.65363,4.24641 9.41055,6.25755 12.97986,6.25755 22.39039,0 3.75865,-2.49938 7.2028,-4.41026 7.65363,-4.24641 0.45077,0.16383 -2.40864,2.69038 -6.35424,5.61454 -3.94563,2.92415 -7.17487,5.61916 -7.17592,5.98889 0,0.36973 1.19422,1.2584 2.65629,1.9748 2.26323,1.10895 2.6267,1.83514 2.44556,4.88605 -0.26234,4.41923 1.4846,4.71334 6.74873,1.13622 2.74001,-1.86187 3.86173,-3.4805 4.6892,-6.76663 0.59816,-2.37564 1.62775,-4.31934 2.28796,-4.31934 0.66015,0 2.78353,-1.0744 4.71858,-2.38753 4.46965,-3.03322 4.54399,-1.34492 0.13484,3.06418 -1.91893,1.91895 -3.38331,4.35237 -3.38331,5.62221 0,1.51046 -1.96562,4.04294 -6.04162,7.78385 -3.3229,3.04973 -5.38914,5.31871 -4.59165,5.04217 0.7975,-0.27654 5.36498,-1.69162 10.14995,-3.14462 4.78498,-1.45299 11.30991,-3.75141 14.4999,-5.10757 7.41865,-3.1539 19.49167,-3.61623 24.41034,-0.93475 l 3.14377,1.71387 -1.49928,3.59904 c -2.16347,5.1933 -7.92905,10.7092 -12.47282,11.93271 -2.12725,0.57282 -4.40933,1.81468 -5.0712,2.75973 -2.17287,3.10225 -10.51092,7.73643 -15.03555,8.3566 -3.76605,0.51619 -5.69482,0.0663 -12.80102,-2.98588 -4.6017,-1.97649 -8.54442,-3.41602 -8.76153,-3.19895 -0.21701,0.21706 2.69881,1.88869 6.47963,3.71472 5.82287,2.81223 7.46146,4.18393 10.71303,8.96819 2.11134,3.1065 5.31759,6.52071 7.12503,7.58713 3.71055,2.18927 4.24211,3.6813 1.3116,3.6813 -2.29806,0 -11.41,-8.1832 -12.60151,-11.31711 -0.77302,-2.03337 -5.53588,-5.02884 -10.37846,-6.52727 l -2.23802,-0.69253 2.1252,4.19348 c 3.99899,7.89061 13.72234,21.1922 16.56647,22.66291 2.80012,1.44804 3.20553,3.27342 0.89783,4.04265 -1.13052,0.37685 -8.04784,-6.1839 -13.87651,-13.16124 l -2.62981,-3.14807 -0.55584,2.69859 c -2.29795,11.1572 -5.24509,16.51756 -10.43598,18.98077 -4.10822,1.9495 -4.21966,1.94897 -8.25422,-0.0388 z m 10.27947,-6.63538 c 2.32589,-1.62912 4.41417,-5.21357 5.37272,-9.22198 0.59768,-2.49898 0.58095,-2.49488 -2.79221,0.68645 -1.86643,1.76024 -4.86114,3.47576 -6.65488,3.81228 -3.95064,0.74115 -9.37343,-1.57534 -12.25069,-5.23315 l -1.98215,-2.51987 0.69418,2.88415 c 1.83907,7.64196 5.43446,11.10078 11.53931,11.10078 2.15584,0 4.88907,-0.6789 6.07372,-1.50866 z m 2.59076,-14.88536 c 0.96336,-1.06458 1.88315,-3.9222 2.10017,-6.52498 0.32219,-3.86443 0.20696,-4.28915 -0.69618,-2.56615 -1.45105,2.76845 -4.91211,4.21859 -10.06847,4.21859 -5.15637,0 -8.61739,-1.45014 -10.06845,-4.21859 -0.90315,-1.723 -1.01837,-1.29828 -0.69621,2.56615 0.58407,7.0061 2.39077,8.41907 10.76466,8.41907 5.67468,0 7.26496,-0.34763 8.66448,-1.89409 z m -12.67903,-30.26233 c 3.55742,-0.9498 8.75672,-0.29823 13.45042,1.68554 2.77916,1.17459 1.06864,-1.76933 -2.12375,-3.65512 -3.57907,-2.11421 -11.04518,-2.11421 -14.62425,0 -3.1974,1.88876 -4.89255,4.81688 -2.12375,3.6686 0.93641,-0.38836 3.37606,-1.15293 5.42133,-1.69902 z"
         id="path8404"
         inkscape:connector-curvature="0" /></g></g></svg>
