<?xml version="1.0" encoding="UTF-8" standalone="no"?>
<!-- Created with Inkscape (http://www.inkscape.org/) -->

<svg
   enable-background="new"
   sodipodi:docname="F6MA44UHXRZHQGE.svg"
   xml:space="preserve"
   height="141.09607"
   width="80.435303"
   inkscape:version="0.48.5 r10040"
   version="1.1"
   id="svg2"
   inkscape:export-filename="/home/seb/Documents/Jeux/hive/Hive.png"
   inkscape:export-xdpi="90"
   inkscape:export-ydpi="90"
   xmlns:inkscape="http://www.inkscape.org/namespaces/inkscape"
   xmlns:sodipodi="http://sodipodi.sourceforge.net/DTD/sodipodi-0.dtd"
   xmlns="http://www.w3.org/2000/svg"
   xmlns:svg="http://www.w3.org/2000/svg"
   xmlns:rdf="http://www.w3.org/1999/02/22-rdf-syntax-ns#"
   xmlns:cc="http://creativecommons.org/ns#"
   xmlns:dc="http://purl.org/dc/elements/1.1/"><sodipodi:namedview
     pagecolor="#ffffff"
     bordercolor="#666666"
     borderopacity="1"
     objecttolerance="10"
     gridtolerance="10"
     guidetolerance="10"
     inkscape:pageopacity="0"
     inkscape:pageshadow="2"
     inkscape:window-width="1920"
     inkscape:window-height="1080"
     id="namedview4"
     showgrid="true"
     inkscape:zoom="0.35355339"
     inkscape:cx="1777.6694"
     inkscape:cy="805.44157"
     inkscape:window-x="0"
     inkscape:window-y="0"
     inkscape:window-maximized="1"
     inkscape:current-layer="layer11"
     units="mm"
     showguides="true"
     inkscape:guide-bbox="true"
     inkscape:document-units="mm"
     inkscape:snap-grids="true"
     inkscape:snap-to-guides="true"
     inkscape:showpageshadow="2"
     inkscape:pagecheckerboard="0"
     inkscape:deskcolor="#d1d1d1"><inkscape:grid
       type="xygrid"
       id="grid3210"
       units="mm"
       empspacing="5"
       visible="true"
       enabled="true"
       snapvisiblegridlinesonly="true"
       originx="-1964.0835"
       originy="-327.41949"
       spacingy="1"
       spacingx="1" /></sodipodi:namedview><metadata
     id="metadata8"><rdf:RDF><cc:Work
         rdf:about=""><dc:format>image/svg+xml</dc:format><dc:type
           rdf:resource="http://purl.org/dc/dcmitype/StillImage" /><dc:title /></cc:Work></rdf:RDF></metadata><defs
     id="defs6"><clipPath
       clipPathUnits="userSpaceOnUse"
       id="clipPath6724"><rect
         style="fill:none;stroke:#00ff00;stroke-width:0.389764;stroke-linecap:square;stroke-linejoin:bevel;stroke-miterlimit:4;stroke-dasharray:none;stroke-dashoffset:0;stroke-opacity:1"
         id="rect6726"
         width="52.149124"
         height="146.72466"
         x="3107.3806"
         y="429.47333"
         rx="0"
         ry="0" /></clipPath></defs><g
     inkscape:groupmode="layer"
     id="layer11"
     inkscape:label="planche"
     style="display:inline"
     transform="translate(-1964.0835,-327.41949)"><g
       style="display:inline"
       inkscape:label="noirs 15"
       id="g8402"
       inkscape:groupmode="layer"><g
         transform="matrix(1.0608607,0,0,1.0608617,-1292.1956,-134.80385)"
         id="g8426"
         style="display:inline;fill:#4f3e34"><path
           transform="translate(-0.13258251)"
           style="display:inline;fill:#4f3e34"
           d="m 3127.6969,566.30776 c 3.0884,-12.30514 2.9098,-21.3953 -0.6043,-30.76703 l -2.0404,-5.44135 -1.1446,5.06429 c -1.4206,6.28443 -5.2076,11.08052 -11.6016,14.69294 -4.6673,2.63683 -5.0708,2.70487 -8.225,1.38693 -4.5099,-1.88431 -11.1762,-8.05916 -12.7441,-11.80453 -0.7074,-1.68978 -1.322,-4.6973 -1.3658,-6.68337 l -0.079,-3.61103 -2.4494,5.18662 c -2.9243,6.19175 -4.0159,19.53955 -2.2656,27.70104 0.6021,2.80733 0.9272,5.27174 0.7225,5.47645 -0.2047,0.2047 -1.1434,-1.25298 -2.086,-3.23931 -2.4409,-5.14375 -2.9675,-19.72196 -1.0402,-28.79604 1.1485,-5.40754 2.4078,-8.24711 5.4357,-12.25741 4.6301,-6.13266 2.4556,-5.51387 -4.2747,1.2164 -5.0694,5.06944 -10.3314,15.339 -12.7473,24.87824 l -1.6633,6.56746 -0.289,-4.48546 c -0.3619,-5.616 2.9567,-15.48145 8.4187,-25.02799 3.6188,-6.32468 4.6306,-7.33488 10.9424,-10.9261 3.8253,-2.17638 7.7584,-3.9999 8.7404,-4.05225 1.6405,-0.0875 1.6305,-0.14565 -0.1243,-0.71835 -1.0503,-0.34276 -5.0037,-2.34075 -8.7855,-4.43996 -6.2065,-3.44519 -7.2487,-4.46748 -10.7052,-10.50016 -5.4286,-9.47461 -6.8825,-14.14175 -7.2875,-23.39176 -0.3224,-7.36542 -0.2617,-7.71841 0.6575,-3.81906 3.5404,15.02033 8.3261,24.68361 15.4983,31.29477 3.6061,3.32397 9.0414,6.89587 10.4933,6.89587 0.2436,0 -1.8988,-2.47046 -4.7611,-5.48991 -2.8623,-3.01944 -5.7808,-6.56402 -6.4855,-7.87682 -4.0613,-7.56538 -4.5661,-24.88703 -1.099,-37.71325 1.2775,-4.72609 2.856,-11.37535 3.5076,-14.77614 0.6518,-3.40078 1.3563,-5.66943 1.5656,-5.04146 0.2094,0.62799 -0.725,6.50737 -2.0762,13.0653 -4.8794,23.68088 -2.0195,40.32771 8.6565,50.3858 l 2.7371,2.57855 -0.3199,-4.02146 c -0.2393,-3.00869 0.1981,-4.68001 1.737,-6.63632 1.1312,-1.43817 2.5219,-2.61484 3.0902,-2.61484 0.5685,0 0.3225,0.7857 -0.5467,1.74601 -0.869,0.96032 -1.5801,2.94632 -1.5801,4.41336 0,2.26271 0.2173,2.48703 1.4322,1.47875 1.1769,-0.97671 1.4322,-0.90115 1.4322,0.42389 0,1.19579 0.6785,1.53442 2.6256,1.31036 1.4767,-0.16991 2.5211,-0.82432 2.3869,-1.49556 -0.1313,-0.6564 0.191,-1.19345 0.7161,-1.19345 0.5251,0 0.9547,0.42964 0.9547,0.95476 0,0.52512 0.4297,0.95477 0.9548,0.95477 1.3903,0 1.1692,-2.54458 -0.5019,-5.77602 -1.9951,-3.85814 0.026,-3.62428 2.4711,0.28611 1.3155,2.10291 1.7919,4.10307 1.4781,6.20598 -0.6102,4.09008 0.5221,3.91605 4.1258,-0.63407 9.7806,-12.34889 11.4972,-26.1027 6.276,-50.28345 -1.2363,-5.72608 -2.0756,-10.58335 -1.8651,-10.79396 0.4651,-0.46503 0.3775,-0.76928 4.3642,15.16664 2.7159,10.85632 3.2072,14.47058 3.1148,22.91438 -0.065,6.00586 -0.6826,11.79195 -1.5389,14.43224 -1.5501,4.77999 -10.826,16.82206 -13.1503,17.07187 -1.0965,0.11784 -1.1343,0.27283 -0.1612,0.6613 1.7876,0.7137 10.7116,-5.65611 14.4616,-10.3224 5.7126,-7.10855 11.4783,-21.27039 11.4783,-28.19323 0,-1.17149 0.4984,-2.43801 1.1075,-2.81453 1.8586,-1.1486 0.1699,12.96279 -2.3975,20.03615 -4.0784,11.23579 -7.937,16.52489 -15.1268,20.73471 -3.5154,2.05841 -7.3822,4.13994 -8.5928,4.62564 -1.4383,0.57698 -1.6657,0.90407 -0.6563,0.9436 0.8499,0.0333 4.4623,1.67169 8.0278,3.64089 7.2205,3.98785 10.3854,8.03175 15.505,19.8114 3.4879,8.02527 4.9849,13.25022 4.9921,17.42449 0.011,5.15302 -1.3289,3.49691 -3.0903,-3.82582 -2.8834,-11.98817 -9.5387,-23.11701 -17.0025,-28.43173 -1.5489,-1.10295 -2.8163,-1.83888 -2.8163,-1.63541 0,0.20348 1.6731,2.61237 3.7179,5.35309 2.7478,3.68279 4.0473,6.65523 4.98,11.39094 1.7869,9.07178 1.5712,21.54985 -0.4779,27.64012 -1.838,5.46328 -4.2155,8.21896 -3.0358,3.51888 z m -14.3642,-22.44859 c 3.0754,-2.41903 5.3609,-6.61755 5.3609,-9.84773 v -2.38874 l -2.5262,2.34133 c -2.1651,2.00643 -3.452,2.34132 -8.9971,2.34132 -5.5684,0 -6.8803,-0.34469 -9.4083,-2.47178 -3.4092,-2.86862 -3.7271,-1.74596 -1.127,3.97898 3.4766,7.65458 11.1302,10.42611 16.6977,6.04662 z"
           id="path8428"
           inkscape:connector-curvature="0"
           clip-path="url(#clipPath6724)" /><path
           clip-path="url(#clipPath6724)"
           inkscape:connector-curvature="0"
           id="path8430"
           d="m 3127.6969,566.30776 c 3.0884,-12.30514 2.9098,-21.3953 -0.6043,-30.76703 l -2.0404,-5.44135 -1.1446,5.06429 c -1.4206,6.28443 -5.2076,11.08052 -11.6016,14.69294 -4.6673,2.63683 -5.0708,2.70487 -8.225,1.38693 -4.5099,-1.88431 -11.1762,-8.05916 -12.7441,-11.80453 -0.7074,-1.68978 -1.322,-4.6973 -1.3658,-6.68337 l -0.079,-3.61103 -2.4494,5.18662 c -2.9243,6.19175 -4.0159,19.53955 -2.2656,27.70104 0.6021,2.80733 0.9272,5.27174 0.7225,5.47645 -0.2047,0.2047 -1.1434,-1.25298 -2.086,-3.23931 -2.4409,-5.14375 -2.9675,-19.72196 -1.0402,-28.79604 1.1485,-5.40754 2.4078,-8.24711 5.4357,-12.25741 4.6301,-6.13266 2.4556,-5.51387 -4.2747,1.2164 -5.0694,5.06944 -10.3314,15.339 -12.7473,24.87824 l -1.6633,6.56746 -0.289,-4.48546 c -0.3619,-5.616 2.9567,-15.48145 8.4187,-25.02799 3.6188,-6.32468 4.6306,-7.33488 10.9424,-10.9261 3.8253,-2.17638 7.7584,-3.9999 8.7404,-4.05225 1.6405,-0.0875 1.6305,-0.14565 -0.1243,-0.71835 -1.0503,-0.34276 -5.0037,-2.34075 -8.7855,-4.43996 -6.2065,-3.44519 -7.2487,-4.46748 -10.7052,-10.50016 -5.4286,-9.47461 -6.8825,-14.14175 -7.2875,-23.39176 -0.3224,-7.36542 -0.2617,-7.71841 0.6575,-3.81906 3.5404,15.02033 8.3261,24.68361 15.4983,31.29477 3.6061,3.32397 9.0414,6.89587 10.4933,6.89587 0.2436,0 -1.8988,-2.47046 -4.7611,-5.48991 -2.8623,-3.01944 -5.7808,-6.56402 -6.4855,-7.87682 -4.0613,-7.56538 -4.5661,-24.88703 -1.099,-37.71325 1.2775,-4.72609 2.856,-11.37535 3.5076,-14.77614 0.6518,-3.40078 1.3563,-5.66943 1.5656,-5.04146 0.2094,0.62799 -0.725,6.50737 -2.0762,13.0653 -4.8794,23.68088 -2.0195,40.32771 8.6565,50.3858 l 2.7371,2.57855 -0.3199,-4.02146 c -0.2393,-3.00869 0.1981,-4.68001 1.737,-6.63632 1.1312,-1.43817 2.5219,-2.61484 3.0902,-2.61484 0.5685,0 0.3225,0.7857 -0.5467,1.74601 -0.869,0.96032 -1.5801,2.94632 -1.5801,4.41336 0,2.26271 0.2173,2.48703 1.4322,1.47875 1.1769,-0.97671 1.4322,-0.90115 1.4322,0.42389 0,1.19579 0.6785,1.53442 2.6256,1.31036 1.4767,-0.16991 2.5211,-0.82432 2.3869,-1.49556 -0.1313,-0.6564 0.191,-1.19345 0.7161,-1.19345 0.5251,0 0.9547,0.42964 0.9547,0.95476 0,0.52512 0.4297,0.95477 0.9548,0.95477 1.3903,0 1.1692,-2.54458 -0.5019,-5.77602 -1.9951,-3.85814 0.026,-3.62428 2.4711,0.28611 1.3155,2.10291 1.7919,4.10307 1.4781,6.20598 -0.6102,4.09008 0.5221,3.91605 4.1258,-0.63407 9.7806,-12.34889 11.4972,-26.1027 6.276,-50.28345 -1.2363,-5.72608 -2.0756,-10.58335 -1.8651,-10.79396 0.4651,-0.46503 0.3775,-0.76928 4.3642,15.16664 2.7159,10.85632 3.2072,14.47058 3.1148,22.91438 -0.065,6.00586 -0.6826,11.79195 -1.5389,14.43224 -1.5501,4.77999 -10.826,16.82206 -13.1503,17.07187 -1.0965,0.11784 -1.1343,0.27283 -0.1612,0.6613 1.7876,0.7137 10.7116,-5.65611 14.4616,-10.3224 5.7126,-7.10855 11.4783,-21.27039 11.4783,-28.19323 0,-1.17149 0.4984,-2.43801 1.1075,-2.81453 1.8586,-1.1486 0.1699,12.96279 -2.3975,20.03615 -4.0784,11.23579 -7.937,16.52489 -15.1268,20.73471 -3.5154,2.05841 -7.3822,4.13994 -8.5928,4.62564 -1.4383,0.57698 -1.6657,0.90407 -0.6563,0.9436 0.8499,0.0333 4.4623,1.67169 8.0278,3.64089 7.2205,3.98785 10.3854,8.03175 15.505,19.8114 3.4879,8.02527 4.9849,13.25022 4.9921,17.42449 0.011,5.15302 -1.3289,3.49691 -3.0903,-3.82582 -2.8834,-11.98817 -9.5387,-23.11701 -17.0025,-28.43173 -1.5489,-1.10295 -2.8163,-1.83888 -2.8163,-1.63541 0,0.20348 1.6731,2.61237 3.7179,5.35309 2.7478,3.68279 4.0473,6.65523 4.98,11.39094 1.7869,9.07178 1.5712,21.54985 -0.4779,27.64012 -1.838,5.46328 -4.2155,8.21896 -3.0358,3.51888 z m -14.3642,-22.44859 c 3.0754,-2.41903 5.3609,-6.61755 5.3609,-9.84773 v -2.38874 l -2.5262,2.34133 c -2.1651,2.00643 -3.452,2.34132 -8.9971,2.34132 -5.5684,0 -6.8803,-0.34469 -9.4083,-2.47178 -3.4092,-2.86862 -3.7271,-1.74596 -1.127,3.97898 3.4766,7.65458 11.1302,10.42611 16.6977,6.04662 z"
           style="display:inline;fill:#4f3e34"
           transform="matrix(-1,0,0,1,6214.8915,2.5723912e-6)" /></g></g></g></svg>
