<?xml version="1.0" encoding="UTF-8" standalone="no"?>
<!-- Created with Inkscape (http://www.inkscape.org/) -->

<svg
   enable-background="new"
   sodipodi:docname="F6MA44UHXRZHQGE.svg"
   xml:space="preserve"
   height="156.45987"
   width="53"
   inkscape:version="0.48.5 r10040"
   version="1.1"
   id="svg2"
   inkscape:export-filename="/home/seb/Documents/Jeux/hive/Hive.png"
   inkscape:export-xdpi="90"
   inkscape:export-ydpi="90"
   xmlns:inkscape="http://www.inkscape.org/namespaces/inkscape"
   xmlns:sodipodi="http://sodipodi.sourceforge.net/DTD/sodipodi-0.dtd"
   xmlns="http://www.w3.org/2000/svg"
   xmlns:svg="http://www.w3.org/2000/svg"
   xmlns:rdf="http://www.w3.org/1999/02/22-rdf-syntax-ns#"
   xmlns:cc="http://creativecommons.org/ns#"
   xmlns:dc="http://purl.org/dc/elements/1.1/"><sodipodi:namedview
     pagecolor="#ffffff"
     bordercolor="#666666"
     borderopacity="1"
     objecttolerance="10"
     gridtolerance="10"
     guidetolerance="10"
     inkscape:pageopacity="0"
     inkscape:pageshadow="2"
     inkscape:window-width="1920"
     inkscape:window-height="1080"
     id="namedview4"
     showgrid="true"
     inkscape:zoom="0.35355339"
     inkscape:cx="1777.6694"
     inkscape:cy="805.44157"
     inkscape:window-x="0"
     inkscape:window-y="0"
     inkscape:window-maximized="1"
     inkscape:current-layer="layer11"
     units="mm"
     showguides="true"
     inkscape:guide-bbox="true"
     inkscape:document-units="mm"
     inkscape:snap-grids="true"
     inkscape:snap-to-guides="true"
     inkscape:showpageshadow="2"
     inkscape:pagecheckerboard="0"
     inkscape:deskcolor="#d1d1d1"><inkscape:grid
       type="xygrid"
       id="grid3210"
       units="mm"
       empspacing="5"
       visible="true"
       enabled="true"
       snapvisiblegridlinesonly="true"
       originx="-1652.5433"
       originy="-319.24042"
       spacingy="1"
       spacingx="1" /></sodipodi:namedview><metadata
     id="metadata8"><rdf:RDF><cc:Work
         rdf:about=""><dc:format>image/svg+xml</dc:format><dc:type
           rdf:resource="http://purl.org/dc/dcmitype/StillImage" /><dc:title /></cc:Work></rdf:RDF></metadata><defs
     id="defs6" /><g
     inkscape:groupmode="layer"
     id="layer11"
     inkscape:label="planche"
     style="display:inline"
     transform="translate(-1652.5433,-319.24042)"><g
       style="display:inline"
       inkscape:label="noirs 15"
       id="g8402"
       inkscape:groupmode="layer"><path
         inkscape:connector-curvature="0"
         id="path8422"
         d="m 1665.4576,319.24041 c -1.4681,0 -1.3675,1.74556 0.2485,4.33307 1.1743,1.88032 0.7664,2.71456 -3.4224,6.9826 -4.5653,4.65194 -4.6998,4.95505 -3.0911,7.41038 1.5423,2.3536 1.4665,3.19331 -0.9383,10.36351 -2.7222,8.11703 -4.6426,19.5336 -2.7874,16.54573 0.5566,-0.89642 1.3262,-3.70377 1.711,-6.23743 0.3848,-2.53368 1.7223,-7.3267 2.9669,-10.65329 l 2.2633,-6.04423 4.2501,5.68542 c 2.3392,3.13522 4.0456,6.47815 3.7949,7.4104 -0.2509,0.93223 -0.7617,3.48816 -1.1314,5.68543 -0.4524,2.68782 -3.1536,7.10252 -8.2522,13.50982 -5.4892,6.89762 -7.3912,10.10063 -6.9135,11.60546 0.3624,1.14274 1.0391,4.83657 1.5038,8.21077 0.6906,5.00987 0.4661,6.87823 -1.2004,10.1703 -2.433,4.80602 -2.467,5.20244 -0.5657,5.20244 0.8057,0 2.2951,-1.84373 3.3118,-4.09847 1.5023,-3.33151 1.6554,-5.27668 0.8556,-10.37731 -0.9815,-6.25857 -0.9641,-6.29642 3.9329,-13.82719 2.7012,-4.15382 5.3096,-7.54839 5.8096,-7.54839 1.518,0 1.0349,1.72985 -1.3385,4.74707 -3.7781,4.80292 -6.4306,18.69717 -6.4306,33.62961 0,7.28684 -0.4863,14.89526 -1.0625,16.90453 -0.7767,2.708 -0.6479,4.4098 0.4829,6.59621 3.0688,5.93464 5.1842,17.90009 5.1473,29.11715 -0.02,6.12553 0.3917,11.13628 0.9244,11.13628 1.1548,0 1.7617,-2.62626 2.6219,-11.50887 0.512,-5.28405 0.054,-8.66044 -2.263,-16.73891 -2.1457,-7.47988 -2.6154,-10.59888 -1.78,-11.93666 0.6795,-1.08836 0.8971,-5.49044 0.5518,-11.02588 -0.4511,-7.22733 -0.1884,-9.92703 1.2006,-12.61283 0.9733,-1.88204 1.7663,-4.5342 1.7663,-5.87862 0,-5.89047 1.9687,0.5948 3.6155,11.95046 2.4671,17.0095 4.6832,23.80429 7.7967,23.80429 3.1137,0 5.3436,-6.79479 7.8106,-23.80429 1.6469,-11.35566 3.6016,-17.84093 3.6016,-11.95046 0,1.34442 0.7933,3.99658 1.7665,5.87862 1.389,2.6858 1.6514,5.3855 1.2007,12.61283 -0.3454,5.53544 -0.128,9.93752 0.5518,11.02588 0.8355,1.33778 0.3794,4.45678 -1.7663,11.93666 -2.3177,8.07847 -2.775,11.45486 -2.263,16.73891 0.8602,8.88261 1.4531,11.50887 2.608,11.50887 0.533,0 0.9452,-5.01075 0.9245,-11.13628 -0.037,-11.21706 2.0923,-23.18253 5.1611,-29.11715 1.1307,-2.18645 1.2458,-3.88817 0.4692,-6.59621 -0.5763,-2.00927 -1.0488,-9.61769 -1.0488,-16.90453 0,-14.93244 -2.6525,-28.82669 -6.4307,-33.62961 -2.3733,-3.01722 -2.8701,-4.74707 -1.3522,-4.74707 0.4998,0 3.1221,3.39459 5.8233,7.54839 4.8971,7.53078 4.9145,7.56863 3.933,13.82719 -0.7998,5.10063 -0.6467,7.0458 0.8556,10.37731 1.0166,2.25474 2.506,4.09847 3.3118,4.09847 1.9012,0 1.8673,-0.3964 -0.5657,-5.20244 -1.6665,-3.29205 -1.891,-5.1604 -1.2005,-10.1703 0.4648,-3.3742 1.1414,-7.06803 1.5039,-8.21077 0.4777,-1.50483 -1.4382,-4.70788 -6.9273,-11.60546 -5.0988,-6.4073 -7.786,-10.822 -8.2384,-13.50982 -0.3698,-2.1973 -0.8806,-4.7532 -1.1314,-5.68543 -0.2507,-0.93225 1.4556,-4.27518 3.7949,-7.4104 l 4.2501,-5.68542 2.2632,6.04423 c 1.2446,3.32659 2.5822,8.11961 2.9669,10.65329 0.3849,2.53366 1.1545,5.34099 1.7111,6.23743 1.8551,2.98787 -0.078,-8.4287 -2.8013,-16.54573 -2.4047,-7.1702 -2.4805,-8.00991 -0.9383,-10.36351 1.6088,-2.45533 1.488,-2.75844 -3.0773,-7.41038 -4.189,-4.26804 -4.5966,-5.10228 -3.4223,-6.9826 1.616,-2.58751 1.7029,-4.33307 0.2344,-4.33307 -0.5974,0 -1.0761,0.51886 -1.0761,1.15916 0,0.64029 -0.732,1.8911 -1.6284,2.78752 -2.4646,2.46457 -1.9785,5.09852 1.5868,8.51437 3.923,3.75826 3.3692,5.32949 -1.09,3.1049 -2.5065,-1.25042 -4.0385,-1.36377 -6.4858,-0.5106 -2.1931,0.76461 -3.4194,0.76405 -3.8916,0 -0.4585,-0.74194 -1.0603,-0.7612 -1.78,-0.0413 -0.72,0.71971 -2.1152,0.72024 -4.1815,0 -2.3365,-0.81454 -3.9227,-0.67837 -6.3891,0.55198 -4.4592,2.2246 -5.013,0.6534 -1.09,-3.10492 3.5653,-3.41581 4.0514,-6.04978 1.5868,-8.51434 -0.8964,-0.89641 -1.6284,-2.14723 -1.6284,-2.78751 0,-0.64032 -0.4926,-1.15918 -1.0902,-1.15918 z m 21.762,16.72511 c 2.9348,-0.0261 5.7327,1.63937 4.5816,3.17391 -6.137,8.17991 -5.6993,7.79576 -5.6993,4.92646 0,-1.44165 -0.728,-3.6468 -1.6147,-4.91266 -1.5001,-2.14195 -1.4281,-2.34514 1.1042,-2.98072 0.5285,-0.1327 1.0847,-0.20216 1.6282,-0.20699 z m -16.6146,0.0277 c 0.6777,-0.0153 1.3471,0.0362 1.9181,0.1794 2.215,0.55596 2.5217,0.99835 1.5178,2.20794 -0.6897,0.83128 -1.5598,2.94452 -1.9319,4.69186 l -0.6761,3.17391 -3.022,-4.20887 c -2.9565,-4.12768 -2.9644,-4.23846 -0.828,-5.38185 0.7499,-0.40141 1.8924,-0.63686 3.0221,-0.66239 z m 13.3166,20.6028 c 1.2911,-0.0739 1.6751,0.73089 -0.026,1.80775 -2.0589,1.30208 -7.656,1.30208 -9.715,0 -2.5189,-1.59293 -0.6013,-2.43686 2.4151,-1.06256 2.0531,0.93549 3.3047,0.92987 5.1195,-0.0413 0.8463,-0.45294 1.6212,-0.67021 2.208,-0.70378 z m -9.7149,6.18223 c 0.8796,0 1.5866,0.45816 1.587,1.02117 0,0.56307 -0.7073,1.00737 -1.587,1.00737 -0.8798,0 -1.587,-0.4443 -1.587,-1.00737 0,-0.56307 0.7072,-1.02117 1.587,-1.02117 z m 9.6596,0 c 0.8798,0 1.5869,0.45816 1.587,1.02117 0,0.56307 -0.7071,1.00737 -1.587,1.00737 -0.8799,0 -1.6008,-0.4443 -1.6008,-1.00737 0,-0.56307 0.7209,-1.02117 1.6008,-1.02117 z m -4.8712,4.81605 1.7664,17.9257 0.9108,15.34514 2.7047,0.91078 c 2.7094,0.90314 2.7009,1.87095 0,2.70473 -2.0104,0.77137 -8.8675,0.79302 -10.8327,0 -2.7096,-0.90314 -2.7156,-1.80159 0.8969,-2.70473 l 1.8078,-0.91078 0.897,-15.34514 z m 0.041,41.7714 c 1.7282,0 3.1184,0.69532 3.1189,1.55936 0,0.86415 -1.3905,1.55936 -3.1189,1.55936 -1.7282,0 -3.1324,-0.69521 -3.1324,-1.55936 0,-0.86415 1.4042,-1.55936 3.1324,-1.55936 z"
         style="display:inline;fill:#8cfc03" /></g></g></svg>
